<?xml version="1.0" encoding="UTF-8"?>
<svg xmlns="http://www.w3.org/2000/svg" width="320" height="380" viewBox="0 0 320 380">
  <defs>
    <style>
      .sq-light { fill: #e8ddc8; }
      .sq-dark { fill: #7d945d; }
      .piece-w { fill: #f5f5f5; font: 28px serif; }
      .piece-b { fill: #1a1a1a; font: 28px serif; }
      .frame { fill: none; stroke: #5c4033; stroke-width: 8; }
    </style>
  </defs>
  <!-- Wood frame -->
  <rect class="frame" x="4" y="4" width="312" height="312" rx="8"/>
  <rect x="14" y="14" width="292" height="292" rx="4" fill="#6b4423"/>
  <!-- Board squares -->
  <g id="board">
    <!-- rank 8 -->
    <rect class="sq-dark" x="24" y="24" width="35" height="35"/>
    <rect class="sq-light" x="59" y="24" width="35" height="35"/>
    <rect class="sq-dark" x="94" y="24" width="35" height="35"/>
    <rect class="sq-light" x="129" y="24" width="35" height="35"/>
    <rect class="sq-dark" x="164" y="24" width="35" height="35"/>
    <rect class="sq-light" x="199" y="24" width="35" height="35"/>
    <rect class="sq-dark" x="234" y="24" width="35" height="35"/>
    <rect class="sq-light" x="269" y="24" width="35" height="35"/>
    <!-- rank 7 -->
    <rect class="sq-light" x="24" y="59" width="35" height="35"/>
    <rect class="sq-dark" x="59" y="59" width="35" height="35"/>
    <rect class="sq-light" x="94" y="59" width="35" height="35"/>
    <rect class="sq-dark" x="129" y="59" width="35" height="35"/>
    <rect class="sq-light" x="164" y="59" width="35" height="35"/>
    <rect class="sq-dark" x="199" y="59" width="35" height="35"/>
    <rect class="sq-light" x="234" y="59" width="35" height="35"/>
    <rect class="sq-dark" x="269" y="59" width="35" height="35"/>
    <!-- rank 6 -->
    <rect class="sq-dark" x="24" y="94" width="35" height="35"/>
    <rect class="sq-light" x="59" y="94" width="35" height="35"/>
    <rect class="sq-dark" x="94" y="94" width="35" height="35"/>
    <rect class="sq-light" x="129" y="94" width="35" height="35"/>
    <rect class="sq-dark" x="164" y="94" width="35" height="35"/>
    <rect class="sq-light" x="199" y="94" width="35" height="35"/>
    <rect class="sq-dark" x="234" y="94" width="35" height="35"/>
    <rect class="sq-light" x="269" y="94" width="35" height="35"/>
    <!-- rank 5 -->
    <rect class="sq-light" x="24" y="129" width="35" height="35"/>
    <rect class="sq-dark" x="59" y="129" width="35" height="35"/>
    <rect class="sq-light" x="94" y="129" width="35" height="35"/>
    <rect class="sq-dark" x="129" y="129" width="35" height="35"/>
    <rect class="sq-light" x="164" y="129" width="35" height="35"/>
    <rect class="sq-dark" x="199" y="129" width="35" height="35"/>
    <rect class="sq-light" x="234" y="129" width="35" height="35"/>
    <rect class="sq-dark" x="269" y="129" width="35" height="35"/>
    <!-- rank 4 - e4 destination, e-pawn animates here -->
    <rect class="sq-dark" x="24" y="164" width="35" height="35"/>
    <rect class="sq-light" x="59" y="164" width="35" height="35"/>
    <rect class="sq-dark" x="94" y="164" width="35" height="35"/>
    <rect class="sq-light" x="129" y="164" width="35" height="35"/>
    <rect class="sq-dark" x="164" y="164" width="35" height="35"/>
    <rect class="sq-light" x="199" y="164" width="35" height="35"/>
    <rect class="sq-dark" x="234" y="164" width="35" height="35"/>
    <rect class="sq-light" x="269" y="164" width="35" height="35"/>
    <!-- rank 3 -->
    <rect class="sq-light" x="24" y="199" width="35" height="35"/>
    <rect class="sq-dark" x="59" y="199" width="35" height="35"/>
    <rect class="sq-light" x="94" y="199" width="35" height="35"/>
    <rect class="sq-dark" x="129" y="199" width="35" height="35"/>
    <rect class="sq-light" x="164" y="199" width="35" height="35"/>
    <rect class="sq-dark" x="199" y="199" width="35" height="35"/>
    <rect class="sq-light" x="234" y="199" width="35" height="35"/>
    <rect class="sq-dark" x="269" y="199" width="35" height="35"/>
    <!-- rank 2 - e-pawn starts here -->
    <rect class="sq-dark" x="24" y="234" width="35" height="35"/>
    <rect class="sq-light" x="59" y="234" width="35" height="35"/>
    <rect class="sq-dark" x="94" y="234" width="35" height="35"/>
    <rect class="sq-light" x="129" y="234" width="35" height="35"/>
    <rect class="sq-dark" x="164" y="234" width="35" height="35"/>
    <rect class="sq-light" x="199" y="234" width="35" height="35"/>
    <rect class="sq-dark" x="234" y="234" width="35" height="35"/>
    <rect class="sq-light" x="269" y="234" width="35" height="35"/>
    <!-- rank 1 -->
    <rect class="sq-light" x="24" y="269" width="35" height="35"/>
    <rect class="sq-dark" x="59" y="269" width="35" height="35"/>
    <rect class="sq-light" x="94" y="269" width="35" height="35"/>
    <rect class="sq-dark" x="129" y="269" width="35" height="35"/>
    <rect class="sq-light" x="164" y="269" width="35" height="35"/>
    <rect class="sq-dark" x="199" y="269" width="35" height="35"/>
    <rect class="sq-light" x="234" y="269" width="35" height="35"/>
    <rect class="sq-dark" x="269" y="269" width="35" height="35"/>
  </g>
  <!-- Black pieces -->
  <text class="piece-b" x="41" y="51">&#9820;</text><text class="piece-b" x="76" y="51">&#9822;</text>
  <text class="piece-b" x="111" y="51">&#9821;</text><text class="piece-b" x="146" y="51">&#9819;</text>
  <text class="piece-b" x="181" y="51">&#9818;</text><text class="piece-b" x="216" y="51">&#9821;</text>
  <text class="piece-b" x="251" y="51">&#9822;</text><text class="piece-b" x="286" y="51">&#9820;</text>
  <text class="piece-b" x="41" y="86">&#9823;</text><text class="piece-b" x="76" y="86">&#9823;</text>
  <text class="piece-b" x="111" y="86">&#9823;</text><text class="piece-b" x="146" y="86">&#9823;</text>
  <text class="piece-b" x="181" y="86">&#9823;</text><text class="piece-b" x="216" y="86">&#9823;</text>
  <text class="piece-b" x="251" y="86">&#9823;</text><text class="piece-b" x="286" y="86">&#9823;</text>
  <!-- White pawns a-d, f-h -->
  <text class="piece-w" x="41" y="261">&#9817;</text><text class="piece-w" x="76" y="261">&#9817;</text>
  <text class="piece-w" x="111" y="261">&#9817;</text><text class="piece-w" x="146" y="261">&#9817;</text>
  <text class="piece-w" x="216" y="261">&#9817;</text><text class="piece-w" x="251" y="261">&#9817;</text>
  <text class="piece-w" x="286" y="261">&#9817;</text>
  <!-- e-pawn: animate from e2 to e4 using animateTransform -->
  <g transform="translate(181,261)">
    <text class="piece-w" x="0" y="0">&#9817;</text>
    <animateTransform attributeName="transform" type="translate" values="181,261;181,191;181,261" dur="2.4s" begin="0.5s" repeatCount="indefinite"/>
  </g>
  <!-- White back rank -->
  <text class="piece-w" x="41" y="296">&#9814;</text><text class="piece-w" x="76" y="296">&#9816;</text>
  <text class="piece-w" x="111" y="296">&#9815;</text><text class="piece-w" x="146" y="296">&#9813;</text>
  <text class="piece-w" x="181" y="296">&#9812;</text><text class="piece-w" x="216" y="296">&#9815;</text>
  <text class="piece-w" x="251" y="296">&#9816;</text><text class="piece-w" x="286" y="296">&#9814;</text>
  <!-- Caption -->
  <text x="160" y="350" text-anchor="middle" fill="#94a3b8" font-size="14" font-family="system-ui">Opening move: 1. e4</text>
</svg>
